<mxfile host="app.diagrams.net" modified="2024-03-30T15:31:13.955Z" agent="Mozilla/5.0 (Windows NT 10.0; Win64; x64) AppleWebKit/537.36 (KHTML, like Gecko) Chrome/123.0.0.0 Safari/537.36" etag="7M0IyJmWp9cGwOj_z3LI" version="24.2.1" type="device">
  <diagram name="Page-1" id="e7e014a7-5840-1c2e-5031-d8a46d1fe8dd">
    <mxGraphModel dx="1313" dy="706" grid="1" gridSize="10" guides="1" tooltips="1" connect="1" arrows="1" fold="1" page="1" pageScale="1" pageWidth="1169" pageHeight="827" background="none" math="0" shadow="0">
      <root>
        <mxCell id="0" />
        <mxCell id="1" parent="0" />
        <mxCell id="2" value="Вчитель" style="swimlane;whiteSpace=wrap;startSize=23;" parent="1" vertex="1">
          <mxGeometry x="9" y="128" width="410" height="592" as="geometry" />
        </mxCell>
        <mxCell id="5" value="" style="ellipse;shape=startState;fillColor=#000000;strokeColor=#ff0000;" parent="2" vertex="1">
          <mxGeometry x="100" y="40" width="30" height="30" as="geometry" />
        </mxCell>
        <mxCell id="6" value="" style="edgeStyle=elbowEdgeStyle;elbow=horizontal;verticalAlign=bottom;endArrow=open;endSize=8;strokeColor=#FF0000;endFill=1;rounded=0" parent="2" source="5" target="7" edge="1">
          <mxGeometry x="100" y="40" as="geometry">
            <mxPoint x="115" y="110" as="targetPoint" />
          </mxGeometry>
        </mxCell>
        <mxCell id="7" value="Вхід/реєстрація" style="" parent="2" vertex="1">
          <mxGeometry x="60" y="110" width="110" height="50" as="geometry" />
        </mxCell>
        <mxCell id="10" value="Створення теми з &#xa;навчальною &#xa;інформацією" style="" parent="2" vertex="1">
          <mxGeometry x="60" y="402" width="110" height="50" as="geometry" />
        </mxCell>
        <mxCell id="12" value="" style="edgeStyle=elbowEdgeStyle;elbow=horizontal;strokeColor=#FF0000;endArrow=open;endFill=1;rounded=0" parent="2" source="10" target="7" edge="1">
          <mxGeometry width="100" height="100" relative="1" as="geometry">
            <mxPoint x="160" y="290" as="sourcePoint" />
            <mxPoint x="260" y="190" as="targetPoint" />
            <Array as="points">
              <mxPoint x="30" y="250" />
            </Array>
          </mxGeometry>
        </mxCell>
        <mxCell id="FS6XTVE9EUjxJYVNOAoc-51" value="" style="endArrow=open;strokeColor=#FF0000;endFill=1;rounded=0;entryX=0.5;entryY=0;entryDx=0;entryDy=0;" edge="1" parent="2" target="FS6XTVE9EUjxJYVNOAoc-52">
          <mxGeometry relative="1" as="geometry">
            <mxPoint x="115.5" y="160" as="sourcePoint" />
            <mxPoint x="115.5" y="220" as="targetPoint" />
          </mxGeometry>
        </mxCell>
        <mxCell id="FS6XTVE9EUjxJYVNOAoc-52" value="помилка &#xa;входу" style="rhombus;fillColor=#ffffc0;strokeColor=#ff0000;" vertex="1" parent="2">
          <mxGeometry x="75.5" y="225" width="80" height="40" as="geometry" />
        </mxCell>
        <mxCell id="FS6XTVE9EUjxJYVNOAoc-53" value="Так" style="edgeStyle=elbowEdgeStyle;elbow=horizontal;align=left;verticalAlign=bottom;endArrow=open;endSize=8;strokeColor=#FF0000;endFill=1;rounded=0;entryX=0.75;entryY=0.5;entryPerimeter=0;exitX=1;exitY=0.5;exitDx=0;exitDy=0;" edge="1" parent="2" source="FS6XTVE9EUjxJYVNOAoc-52" target="FS6XTVE9EUjxJYVNOAoc-54">
          <mxGeometry x="-1" relative="1" as="geometry">
            <mxPoint x="200.5" y="150" as="targetPoint" />
            <Array as="points">
              <mxPoint x="230.5" y="180" />
            </Array>
            <mxPoint x="206" y="252" as="sourcePoint" />
          </mxGeometry>
        </mxCell>
        <mxCell id="FS6XTVE9EUjxJYVNOAoc-54" value="" style="shape=line;strokeWidth=6;strokeColor=#ff0000;rotation=90" vertex="1" parent="2">
          <mxGeometry x="170.5" y="127.5" width="50" height="15" as="geometry" />
        </mxCell>
        <mxCell id="FS6XTVE9EUjxJYVNOAoc-55" value="Особистий&#xa;профіль" style="" vertex="1" parent="2">
          <mxGeometry x="180.5" y="325" width="110" height="50" as="geometry" />
        </mxCell>
        <mxCell id="FS6XTVE9EUjxJYVNOAoc-56" value="" style="edgeStyle=elbowEdgeStyle;elbow=horizontal;strokeColor=#FF0000;endArrow=open;endFill=1;rounded=0;entryX=0.25;entryY=0.5;entryPerimeter=0;exitX=0.75;exitY=0;exitDx=0;exitDy=0;" edge="1" parent="2" source="FS6XTVE9EUjxJYVNOAoc-55">
          <mxGeometry width="100" height="100" relative="1" as="geometry">
            <mxPoint x="266" y="392" as="sourcePoint" />
            <mxPoint x="195.5" y="122" as="targetPoint" />
            <Array as="points">
              <mxPoint x="263.5" y="232" />
            </Array>
          </mxGeometry>
        </mxCell>
        <mxCell id="FS6XTVE9EUjxJYVNOAoc-57" value="Вихід з&lt;div&gt;профілю&lt;/div&gt;" style="edgeLabel;html=1;align=center;verticalAlign=middle;resizable=0;points=[];" vertex="1" connectable="0" parent="FS6XTVE9EUjxJYVNOAoc-56">
          <mxGeometry x="-0.7017" relative="1" as="geometry">
            <mxPoint x="-28" y="17" as="offset" />
          </mxGeometry>
        </mxCell>
        <mxCell id="FS6XTVE9EUjxJYVNOAoc-58" value="" style="edgeStyle=elbowEdgeStyle;elbow=horizontal;verticalAlign=bottom;endArrow=open;endSize=8;strokeColor=#FF0000;endFill=1;rounded=0;entryX=1;entryY=0.5;entryDx=0;entryDy=0;" edge="1" parent="2" target="7">
          <mxGeometry x="-34.5" y="-38" as="geometry">
            <mxPoint x="175.5" y="137" as="targetPoint" />
            <mxPoint x="195.5" y="135" as="sourcePoint" />
          </mxGeometry>
        </mxCell>
        <mxCell id="FS6XTVE9EUjxJYVNOAoc-85" value="" style="edgeStyle=orthogonalEdgeStyle;elbow=horizontal;strokeColor=#FF0000;endArrow=open;endFill=1;rounded=0;exitX=0;exitY=0.5;exitDx=0;exitDy=0;exitPerimeter=0;" edge="1" parent="2" source="FS6XTVE9EUjxJYVNOAoc-54">
          <mxGeometry width="100" height="100" relative="1" as="geometry">
            <mxPoint x="180.5" y="102" as="sourcePoint" />
            <mxPoint x="330" y="452" as="targetPoint" />
            <Array as="points">
              <mxPoint x="195" y="100" />
              <mxPoint x="330" y="100" />
              <mxPoint x="330" y="452" />
            </Array>
          </mxGeometry>
        </mxCell>
        <mxCell id="FS6XTVE9EUjxJYVNOAoc-86" value="&lt;div&gt;&lt;br&gt;&lt;/div&gt;" style="edgeLabel;html=1;align=center;verticalAlign=middle;resizable=0;points=[];" vertex="1" connectable="0" parent="FS6XTVE9EUjxJYVNOAoc-85">
          <mxGeometry x="-0.8336" y="1" relative="1" as="geometry">
            <mxPoint as="offset" />
          </mxGeometry>
        </mxCell>
        <mxCell id="FS6XTVE9EUjxJYVNOAoc-88" value="" style="ellipse;shape=endState;fillColor=#000000;strokeColor=#ff0000" vertex="1" parent="2">
          <mxGeometry x="310" y="532" width="30" height="30" as="geometry" />
        </mxCell>
        <mxCell id="FS6XTVE9EUjxJYVNOAoc-89" value="Вихід з системи" style="" vertex="1" parent="2">
          <mxGeometry x="270" y="452" width="110" height="50" as="geometry" />
        </mxCell>
        <mxCell id="FS6XTVE9EUjxJYVNOAoc-90" value="" style="endArrow=open;strokeColor=#FF0000;endFill=1;rounded=0;exitX=0.5;exitY=1;exitDx=0;exitDy=0;entryX=0.5;entryY=0;entryDx=0;entryDy=0;" edge="1" parent="2">
          <mxGeometry relative="1" as="geometry">
            <mxPoint x="324.58000000000004" y="502" as="sourcePoint" />
            <mxPoint x="324.58000000000004" y="532" as="targetPoint" />
            <Array as="points" />
          </mxGeometry>
        </mxCell>
        <mxCell id="FS6XTVE9EUjxJYVNOAoc-102" value="" style="endArrow=open;strokeColor=#FF0000;endFill=1;rounded=0;entryX=0.5;entryY=0;entryDx=0;entryDy=0;" edge="1" parent="2" target="FS6XTVE9EUjxJYVNOAoc-124">
          <mxGeometry relative="1" as="geometry">
            <mxPoint x="115.08" y="265" as="sourcePoint" />
            <mxPoint x="141" y="302" as="targetPoint" />
          </mxGeometry>
        </mxCell>
        <mxCell id="FS6XTVE9EUjxJYVNOAoc-124" value="Навчальні&#xa;матеріали" style="" vertex="1" parent="2">
          <mxGeometry x="60" y="302" width="110" height="50" as="geometry" />
        </mxCell>
        <mxCell id="FS6XTVE9EUjxJYVNOAoc-125" value="" style="endArrow=open;strokeColor=#FF0000;endFill=1;rounded=0;entryX=0.5;entryY=0;entryDx=0;entryDy=0;exitX=0.5;exitY=1;exitDx=0;exitDy=0;" edge="1" parent="2" source="FS6XTVE9EUjxJYVNOAoc-124" target="10">
          <mxGeometry relative="1" as="geometry">
            <mxPoint x="125.07999999999998" y="275" as="sourcePoint" />
            <mxPoint x="125" y="312" as="targetPoint" />
          </mxGeometry>
        </mxCell>
        <mxCell id="3" value="Учень" style="swimlane;whiteSpace=wrap" parent="1" vertex="1">
          <mxGeometry x="419" y="128" width="350" height="592" as="geometry" />
        </mxCell>
        <mxCell id="13" value="" style="ellipse;shape=startState;fillColor=#000000;strokeColor=#ff0000;" parent="3" vertex="1">
          <mxGeometry x="60" y="40" width="30" height="30" as="geometry" />
        </mxCell>
        <mxCell id="14" value="" style="edgeStyle=elbowEdgeStyle;elbow=horizontal;verticalAlign=bottom;endArrow=open;endSize=8;strokeColor=#FF0000;endFill=1;rounded=0" parent="3" source="13" target="15" edge="1">
          <mxGeometry x="40" y="20" as="geometry">
            <mxPoint x="55" y="90" as="targetPoint" />
          </mxGeometry>
        </mxCell>
        <mxCell id="15" value="Вхід/реєстрація" style="" parent="3" vertex="1">
          <mxGeometry x="20" y="110" width="110" height="50" as="geometry" />
        </mxCell>
        <mxCell id="17" value="" style="endArrow=open;strokeColor=#FF0000;endFill=1;rounded=0;entryX=0.5;entryY=0;entryDx=0;entryDy=0;" parent="3" source="15" target="21" edge="1">
          <mxGeometry relative="1" as="geometry">
            <mxPoint x="75" y="220" as="targetPoint" />
          </mxGeometry>
        </mxCell>
        <mxCell id="18" value="Навчальні&#xa;матеріали" style="" parent="3" vertex="1">
          <mxGeometry x="20" y="252" width="110" height="50" as="geometry" />
        </mxCell>
        <mxCell id="19" value="" style="endArrow=open;strokeColor=#FF0000;endFill=1;rounded=0;exitX=0.5;exitY=1;exitDx=0;exitDy=0;align=left;labelPosition=right;verticalLabelPosition=middle;verticalAlign=middle;" parent="3" source="21" target="18" edge="1">
          <mxGeometry relative="1" as="geometry">
            <mxPoint x="75" y="270" as="sourcePoint" />
          </mxGeometry>
        </mxCell>
        <mxCell id="FS6XTVE9EUjxJYVNOAoc-75" value="Ні" style="edgeLabel;html=1;align=center;verticalAlign=middle;resizable=0;points=[];" vertex="1" connectable="0" parent="19">
          <mxGeometry x="-0.2444" y="-2" relative="1" as="geometry">
            <mxPoint as="offset" />
          </mxGeometry>
        </mxCell>
        <mxCell id="21" value="помилка &#xa;входу" style="rhombus;fillColor=#ffffc0;strokeColor=#ff0000;" parent="3" vertex="1">
          <mxGeometry x="35" y="182" width="80" height="40" as="geometry" />
        </mxCell>
        <mxCell id="22" value="Так" style="edgeStyle=elbowEdgeStyle;elbow=horizontal;align=left;verticalAlign=bottom;endArrow=open;endSize=8;strokeColor=#FF0000;endFill=1;rounded=0;entryX=0.75;entryY=0.5;entryPerimeter=0;exitX=1;exitY=0.5;exitDx=0;exitDy=0;" parent="3" source="21" target="25" edge="1">
          <mxGeometry x="-1" relative="1" as="geometry">
            <mxPoint x="160" y="150" as="targetPoint" />
            <Array as="points">
              <mxPoint x="190" y="180" />
            </Array>
            <mxPoint x="165.5" y="252" as="sourcePoint" />
          </mxGeometry>
        </mxCell>
        <mxCell id="25" value="" style="shape=line;strokeWidth=6;strokeColor=#ff0000;rotation=90" parent="3" vertex="1">
          <mxGeometry x="130" y="127.5" width="50" height="15" as="geometry" />
        </mxCell>
        <mxCell id="26" value="" style="edgeStyle=elbowEdgeStyle;elbow=horizontal;verticalAlign=bottom;endArrow=open;endSize=8;strokeColor=#FF0000;endFill=1;rounded=0;exitX=0.524;exitY=0.507;exitDx=0;exitDy=0;exitPerimeter=0;" parent="3" source="25" target="15" edge="1">
          <mxGeometry x="130" y="90" as="geometry">
            <mxPoint x="230" y="140" as="targetPoint" />
          </mxGeometry>
        </mxCell>
        <mxCell id="30" value="Особистий&#xa;профіль" style="" parent="3" vertex="1">
          <mxGeometry x="140.5" y="252" width="110" height="50" as="geometry" />
        </mxCell>
        <mxCell id="35" value="" style="edgeStyle=elbowEdgeStyle;elbow=horizontal;strokeColor=#FF0000;endArrow=open;endFill=1;rounded=0;entryX=0.25;entryY=0.5;entryPerimeter=0;exitX=0.75;exitY=0;exitDx=0;exitDy=0;" parent="3" edge="1" source="30">
          <mxGeometry width="100" height="100" relative="1" as="geometry">
            <mxPoint x="225.5" y="392" as="sourcePoint" />
            <mxPoint x="155" y="122" as="targetPoint" />
            <Array as="points">
              <mxPoint x="223" y="232" />
            </Array>
          </mxGeometry>
        </mxCell>
        <mxCell id="FS6XTVE9EUjxJYVNOAoc-49" value="Вихід з&lt;div&gt;профілю&lt;/div&gt;" style="edgeLabel;html=1;align=center;verticalAlign=middle;resizable=0;points=[];" vertex="1" connectable="0" parent="35">
          <mxGeometry x="-0.7017" relative="1" as="geometry">
            <mxPoint x="-27" y="10" as="offset" />
          </mxGeometry>
        </mxCell>
        <mxCell id="FS6XTVE9EUjxJYVNOAoc-68" value="Вивчення теми" style="" vertex="1" parent="3">
          <mxGeometry x="20" y="332" width="110" height="50" as="geometry" />
        </mxCell>
        <mxCell id="FS6XTVE9EUjxJYVNOAoc-69" value="" style="endArrow=open;strokeColor=#FF0000;endFill=1;rounded=0;exitX=0.5;exitY=1;exitDx=0;exitDy=0;" edge="1" parent="3" target="FS6XTVE9EUjxJYVNOAoc-68" source="18">
          <mxGeometry relative="1" as="geometry">
            <mxPoint x="75" y="375" as="sourcePoint" />
          </mxGeometry>
        </mxCell>
        <mxCell id="FS6XTVE9EUjxJYVNOAoc-70" value="Проходження &#xa;тестування" style="" vertex="1" parent="3">
          <mxGeometry x="20" y="412" width="110" height="50" as="geometry" />
        </mxCell>
        <mxCell id="FS6XTVE9EUjxJYVNOAoc-71" value="" style="endArrow=open;strokeColor=#FF0000;endFill=1;rounded=0;exitX=0.5;exitY=1;exitDx=0;exitDy=0;entryX=0.5;entryY=0;entryDx=0;entryDy=0;" edge="1" parent="3" target="FS6XTVE9EUjxJYVNOAoc-70" source="FS6XTVE9EUjxJYVNOAoc-68">
          <mxGeometry relative="1" as="geometry">
            <mxPoint x="75.5" y="452" as="sourcePoint" />
            <mxPoint x="105.5" y="452" as="targetPoint" />
            <Array as="points" />
          </mxGeometry>
        </mxCell>
        <mxCell id="FS6XTVE9EUjxJYVNOAoc-72" value="Отримання &#xa;результату" style="" vertex="1" parent="3">
          <mxGeometry x="20" y="492" width="110" height="50" as="geometry" />
        </mxCell>
        <mxCell id="FS6XTVE9EUjxJYVNOAoc-73" value="" style="endArrow=open;strokeColor=#FF0000;endFill=1;rounded=0;entryX=0.5;entryY=0;entryDx=0;entryDy=0;exitX=0.5;exitY=1;exitDx=0;exitDy=0;" edge="1" parent="3" target="FS6XTVE9EUjxJYVNOAoc-72" source="FS6XTVE9EUjxJYVNOAoc-70">
          <mxGeometry relative="1" as="geometry">
            <mxPoint x="95.5" y="482" as="sourcePoint" />
            <mxPoint x="105.5" y="522" as="targetPoint" />
            <Array as="points" />
          </mxGeometry>
        </mxCell>
        <mxCell id="FS6XTVE9EUjxJYVNOAoc-74" value="" style="endArrow=open;strokeColor=#FF0000;endFill=1;rounded=0;entryX=0.145;entryY=1.027;entryDx=0;entryDy=0;exitX=1;exitY=0.5;exitDx=0;exitDy=0;entryPerimeter=0;" edge="1" parent="3" source="FS6XTVE9EUjxJYVNOAoc-72" target="30">
          <mxGeometry relative="1" as="geometry">
            <mxPoint x="85" y="472" as="sourcePoint" />
            <mxPoint x="85" y="502" as="targetPoint" />
            <Array as="points">
              <mxPoint x="155.5" y="517" />
            </Array>
          </mxGeometry>
        </mxCell>
        <mxCell id="FS6XTVE9EUjxJYVNOAoc-79" value="" style="ellipse;shape=endState;fillColor=#000000;strokeColor=#ff0000" vertex="1" parent="3">
          <mxGeometry x="270" y="532" width="30" height="30" as="geometry" />
        </mxCell>
        <mxCell id="FS6XTVE9EUjxJYVNOAoc-80" value="" style="edgeStyle=orthogonalEdgeStyle;elbow=horizontal;strokeColor=#FF0000;endArrow=open;endFill=1;rounded=0;entryX=0.5;entryY=0;exitX=0;exitY=0.5;exitDx=0;exitDy=0;exitPerimeter=0;entryDx=0;entryDy=0;" edge="1" parent="3" source="25" target="FS6XTVE9EUjxJYVNOAoc-82">
          <mxGeometry width="100" height="100" relative="1" as="geometry">
            <mxPoint x="248" y="532" as="sourcePoint" />
            <mxPoint x="180" y="402" as="targetPoint" />
          </mxGeometry>
        </mxCell>
        <mxCell id="FS6XTVE9EUjxJYVNOAoc-83" value="&lt;div&gt;&lt;br&gt;&lt;/div&gt;" style="edgeLabel;html=1;align=center;verticalAlign=middle;resizable=0;points=[];" vertex="1" connectable="0" parent="FS6XTVE9EUjxJYVNOAoc-80">
          <mxGeometry x="-0.8336" y="1" relative="1" as="geometry">
            <mxPoint as="offset" />
          </mxGeometry>
        </mxCell>
        <mxCell id="FS6XTVE9EUjxJYVNOAoc-82" value="Вихід з системи" style="" vertex="1" parent="3">
          <mxGeometry x="230" y="452" width="110" height="50" as="geometry" />
        </mxCell>
        <mxCell id="FS6XTVE9EUjxJYVNOAoc-84" value="" style="endArrow=open;strokeColor=#FF0000;endFill=1;rounded=0;exitX=0.5;exitY=1;exitDx=0;exitDy=0;entryX=0.5;entryY=0;entryDx=0;entryDy=0;" edge="1" parent="3">
          <mxGeometry relative="1" as="geometry">
            <mxPoint x="284.58000000000004" y="502" as="sourcePoint" />
            <mxPoint x="284.58000000000004" y="532" as="targetPoint" />
            <Array as="points" />
          </mxGeometry>
        </mxCell>
        <mxCell id="4" value="Адміністратор" style="swimlane;whiteSpace=wrap;startSize=23;" parent="1" vertex="1">
          <mxGeometry x="769" y="128" width="400" height="592" as="geometry" />
        </mxCell>
        <mxCell id="FS6XTVE9EUjxJYVNOAoc-41" value="" style="ellipse;shape=startState;fillColor=#000000;strokeColor=#ff0000;" vertex="1" parent="4">
          <mxGeometry x="94.5" y="42" width="30" height="30" as="geometry" />
        </mxCell>
        <mxCell id="FS6XTVE9EUjxJYVNOAoc-42" value="" style="edgeStyle=elbowEdgeStyle;elbow=horizontal;verticalAlign=bottom;endArrow=open;endSize=8;strokeColor=#FF0000;endFill=1;rounded=0" edge="1" parent="4" source="FS6XTVE9EUjxJYVNOAoc-41" target="FS6XTVE9EUjxJYVNOAoc-43">
          <mxGeometry x="-624.5" y="-88" as="geometry">
            <mxPoint x="109.5" y="112" as="targetPoint" />
          </mxGeometry>
        </mxCell>
        <mxCell id="FS6XTVE9EUjxJYVNOAoc-43" value="Вхід/реєстрація" style="" vertex="1" parent="4">
          <mxGeometry x="54.5" y="112" width="110" height="50" as="geometry" />
        </mxCell>
        <mxCell id="FS6XTVE9EUjxJYVNOAoc-60" value="" style="endArrow=open;strokeColor=#FF0000;endFill=1;rounded=0;entryX=0.5;entryY=0;entryDx=0;entryDy=0;" edge="1" parent="4" target="FS6XTVE9EUjxJYVNOAoc-61">
          <mxGeometry relative="1" as="geometry">
            <mxPoint x="110" y="160" as="sourcePoint" />
            <mxPoint x="110" y="220" as="targetPoint" />
          </mxGeometry>
        </mxCell>
        <mxCell id="FS6XTVE9EUjxJYVNOAoc-61" value="помилка &#xa;входу" style="rhombus;fillColor=#ffffc0;strokeColor=#ff0000;" vertex="1" parent="4">
          <mxGeometry x="70" y="225" width="80" height="40" as="geometry" />
        </mxCell>
        <mxCell id="FS6XTVE9EUjxJYVNOAoc-62" value="Так" style="edgeStyle=elbowEdgeStyle;elbow=horizontal;align=left;verticalAlign=bottom;endArrow=open;endSize=8;strokeColor=#FF0000;endFill=1;rounded=0;entryX=0.75;entryY=0.5;entryPerimeter=0;exitX=1;exitY=0.5;exitDx=0;exitDy=0;" edge="1" parent="4" source="FS6XTVE9EUjxJYVNOAoc-61" target="FS6XTVE9EUjxJYVNOAoc-63">
          <mxGeometry x="-1" relative="1" as="geometry">
            <mxPoint x="195" y="150" as="targetPoint" />
            <Array as="points">
              <mxPoint x="225" y="180" />
            </Array>
            <mxPoint x="200.5" y="252" as="sourcePoint" />
          </mxGeometry>
        </mxCell>
        <mxCell id="FS6XTVE9EUjxJYVNOAoc-63" value="" style="shape=line;strokeWidth=6;strokeColor=#ff0000;rotation=90" vertex="1" parent="4">
          <mxGeometry x="165" y="127.5" width="50" height="15" as="geometry" />
        </mxCell>
        <mxCell id="FS6XTVE9EUjxJYVNOAoc-64" value="Особистий&#xa;профіль" style="" vertex="1" parent="4">
          <mxGeometry x="175" y="362" width="110" height="50" as="geometry" />
        </mxCell>
        <mxCell id="FS6XTVE9EUjxJYVNOAoc-65" value="" style="edgeStyle=elbowEdgeStyle;elbow=horizontal;strokeColor=#FF0000;endArrow=open;endFill=1;rounded=0;entryX=0.25;entryY=0.5;entryPerimeter=0;exitX=0.75;exitY=0;exitDx=0;exitDy=0;" edge="1" parent="4" source="FS6XTVE9EUjxJYVNOAoc-64">
          <mxGeometry width="100" height="100" relative="1" as="geometry">
            <mxPoint x="260.5" y="392" as="sourcePoint" />
            <mxPoint x="190" y="122" as="targetPoint" />
            <Array as="points">
              <mxPoint x="258" y="232" />
            </Array>
          </mxGeometry>
        </mxCell>
        <mxCell id="FS6XTVE9EUjxJYVNOAoc-66" value="Вихід з&lt;div&gt;профілю&lt;/div&gt;" style="edgeLabel;html=1;align=center;verticalAlign=middle;resizable=0;points=[];" vertex="1" connectable="0" parent="FS6XTVE9EUjxJYVNOAoc-65">
          <mxGeometry x="-0.7017" relative="1" as="geometry">
            <mxPoint x="-28" y="17" as="offset" />
          </mxGeometry>
        </mxCell>
        <mxCell id="FS6XTVE9EUjxJYVNOAoc-67" value="" style="edgeStyle=elbowEdgeStyle;elbow=horizontal;verticalAlign=bottom;endArrow=open;endSize=8;strokeColor=#FF0000;endFill=1;rounded=0;entryX=1;entryY=0.5;entryDx=0;entryDy=0;" edge="1" parent="4">
          <mxGeometry x="-759" y="-166" as="geometry">
            <mxPoint x="164.5" y="135" as="targetPoint" />
            <mxPoint x="190" y="135" as="sourcePoint" />
          </mxGeometry>
        </mxCell>
        <mxCell id="FS6XTVE9EUjxJYVNOAoc-77" value="Перегляд/редагування&#xa;бази даних" style="" vertex="1" parent="4">
          <mxGeometry x="45" y="295" width="130" height="50" as="geometry" />
        </mxCell>
        <mxCell id="FS6XTVE9EUjxJYVNOAoc-78" value="" style="endArrow=open;strokeColor=#FF0000;endFill=1;rounded=0;entryX=0.5;entryY=0;entryDx=0;entryDy=0;exitX=0.5;exitY=1;exitDx=0;exitDy=0;" edge="1" parent="4" target="FS6XTVE9EUjxJYVNOAoc-77">
          <mxGeometry relative="1" as="geometry">
            <mxPoint x="109.5" y="265" as="sourcePoint" />
            <mxPoint x="140" y="325" as="targetPoint" />
            <Array as="points" />
          </mxGeometry>
        </mxCell>
        <mxCell id="FS6XTVE9EUjxJYVNOAoc-96" value="" style="ellipse;shape=endState;fillColor=#000000;strokeColor=#ff0000" vertex="1" parent="4">
          <mxGeometry x="309.5" y="516" width="30" height="30" as="geometry" />
        </mxCell>
        <mxCell id="FS6XTVE9EUjxJYVNOAoc-97" value="" style="edgeStyle=orthogonalEdgeStyle;elbow=horizontal;strokeColor=#FF0000;endArrow=open;endFill=1;rounded=0;entryX=0.5;entryY=0;exitX=0;exitY=0.5;exitDx=0;exitDy=0;exitPerimeter=0;entryDx=0;entryDy=0;" edge="1" parent="4" target="FS6XTVE9EUjxJYVNOAoc-99" source="FS6XTVE9EUjxJYVNOAoc-63">
          <mxGeometry width="100" height="100" relative="1" as="geometry">
            <mxPoint x="194.5" y="94" as="sourcePoint" />
            <mxPoint x="219.5" y="386" as="targetPoint" />
          </mxGeometry>
        </mxCell>
        <mxCell id="FS6XTVE9EUjxJYVNOAoc-98" value="&lt;div&gt;&lt;br&gt;&lt;/div&gt;" style="edgeLabel;html=1;align=center;verticalAlign=middle;resizable=0;points=[];" vertex="1" connectable="0" parent="FS6XTVE9EUjxJYVNOAoc-97">
          <mxGeometry x="-0.8336" y="1" relative="1" as="geometry">
            <mxPoint as="offset" />
          </mxGeometry>
        </mxCell>
        <mxCell id="FS6XTVE9EUjxJYVNOAoc-99" value="Вихід з системи" style="" vertex="1" parent="4">
          <mxGeometry x="269.5" y="436" width="110" height="50" as="geometry" />
        </mxCell>
        <mxCell id="FS6XTVE9EUjxJYVNOAoc-100" value="" style="endArrow=open;strokeColor=#FF0000;endFill=1;rounded=0;exitX=0.5;exitY=1;exitDx=0;exitDy=0;entryX=0.5;entryY=0;entryDx=0;entryDy=0;" edge="1" parent="4">
          <mxGeometry relative="1" as="geometry">
            <mxPoint x="324.0799999999999" y="486" as="sourcePoint" />
            <mxPoint x="324.0799999999999" y="516" as="targetPoint" />
            <Array as="points" />
          </mxGeometry>
        </mxCell>
        <mxCell id="20" value="" style="endArrow=open;strokeColor=#FF0000;endFill=1;rounded=0;entryX=0.003;entryY=0.568;entryDx=0;entryDy=0;exitX=1;exitY=0.5;exitDx=0;exitDy=0;entryPerimeter=0;" parent="1" source="10" target="18" edge="1">
          <mxGeometry relative="1" as="geometry">
            <mxPoint x="199" y="450" as="sourcePoint" />
            <mxPoint x="444" y="405" as="targetPoint" />
            <Array as="points">
              <mxPoint x="290" y="555" />
            </Array>
          </mxGeometry>
        </mxCell>
      </root>
    </mxGraphModel>
  </diagram>
</mxfile>
